<svg xmlns="http://www.w3.org/2000/svg" version="1.1" xmlns:xlink="http://www.w3.org/1999/xlink" xmlns:svgjs="http://svgjs.dev/svgjs" width="1000" height="1000" viewBox="0 0 1000 1000"><rect width="1000" height="1000" fill="#ffffff"></rect><g transform="matrix(0.7,0,0,0.7,150,281.25)"><svg viewBox="0 0 512 320" data-background-color="#ffffff" preserveAspectRatio="xMidYMid meet" height="625" width="1000" xmlns="http://www.w3.org/2000/svg" xmlns:xlink="http://www.w3.org/1999/xlink"><defs></defs><g id="tight-bounds" transform="matrix(1,0,0,1,0,0)"><svg viewBox="0 0 512 320" height="320" width="512"><g><svg></svg></g><g><svg viewBox="0 0 512 320" height="320" width="512"><g><path d="M96 160c0-88.366 71.634-160 160-160 88.366 0 160 71.634 160 160 0 88.366-71.634 160-160 160-88.366 0-160-71.634-160-160zM256 316.35c86.35 0 156.35-70 156.35-156.35 0-86.35-70-156.35-156.35-156.35-86.35 0-156.35 70-156.35 156.35 0 86.35 70 156.35 156.35 156.35z" fill="#919591" data-fill-palette-color="tertiary"></path></g><g transform="matrix(1,0,0,1,128,116.2224155179976)"><svg viewBox="0 0 256 87.5551689640048" height="87.5551689640048" width="256"><g><svg viewBox="0 0 257.28 87.99294480882482" height="87.5551689640048" width="256"><g><rect width="257.28" height="1.8341848657708384" x="0" y="61.01830810011482" fill="#636365" opacity="1" stroke-width="0" stroke="transparent" fill-opacity="1" class="rect-o-0" data-fill-palette-color="secondary" rx="1%" id="o-0" data-palette-color="#636365"></rect></g><g transform="matrix(1,0,0,1,0.6399999999999864,67.65402402811299)"><svg viewBox="0 0 256 20.338920780711828" height="20.338920780711828" width="256"><g><svg viewBox="0 0 256 20.338920780711828" height="20.338920780711828" width="256"><g><svg viewBox="0 0 256 20.338920780711828" height="20.338920780711828" width="256"><g transform="matrix(1,0,0,1,0,0)"><svg width="256" viewBox="3.549999952316284 -34.150001525878906 435.46002197265625 34.60000228881836" height="20.338920780711828" data-palette-color="#919591"><path d="M23.9-12.8L23.9-12.8 23.9-33.7 29.05-33.7 29.05-12.9Q29.05-6.35 25.65-2.95 22.25 0.45 16.25 0.45L16.25 0.45Q10.35 0.45 6.95-2.88 3.55-6.2 3.55-12.5L3.55-12.5 3.55-33.7 8.7-33.7 8.7-12.55Q8.7-8.25 10.78-6.28 12.85-4.3 16.25-4.3L16.25-4.3Q23.9-4.3 23.9-12.8ZM41.4-29.45L41.4-16.2 45.8-16.2Q49.45-16.2 51.37-18 53.3-19.8 53.3-22.75L53.3-22.75Q53.3-25.85 51.35-27.65 49.4-29.45 45.7-29.45L45.7-29.45 41.4-29.45ZM36.25 0L36.25-33.7 45.9-33.7Q51.7-33.7 55.1-30.63 58.5-27.55 58.5-22.75 58.5-17.95 55.07-14.95 51.65-11.95 46.2-11.95L46.2-11.95 41.4-11.95 41.4 0 36.25 0ZM68.9-29.45L68.9-16.2 73.3-16.2Q76.95-16.2 78.87-18 80.8-19.8 80.8-22.75L80.8-22.75Q80.8-25.85 78.84-27.65 76.9-29.45 73.2-29.45L73.2-29.45 68.9-29.45ZM63.75 0L63.75-33.7 73.4-33.7Q79.2-33.7 82.59-30.63 86-27.55 86-22.75 86-17.95 82.57-14.95 79.15-11.95 73.7-11.95L73.7-11.95 68.9-11.95 68.9 0 63.75 0ZM96.39-14.7L96.39-4.3 110.69-4.3 110.69 0 91.24 0 91.24-33.7 110.44-33.7 110.44-29.4 96.39-29.4 96.39-19 108.84-19 108.84-14.7 96.39-14.7ZM126.49-29.4L122.09-29.4 122.09-17.1 126.74-17.1Q129.94-17.1 131.59-18.78 133.24-20.45 133.24-23.25L133.24-23.25Q133.24-29.4 126.49-29.4L126.49-29.4ZM140.59 0L134.44 0 126.54-12.8 122.09-12.8 122.09 0 116.94 0 116.94-33.7 126.34-33.7Q132.14-33.7 135.29-30.88 138.44-28.05 138.44-23.2L138.44-23.2Q138.39-19.65 136.64-17.18 134.89-14.7 131.79-13.6L131.79-13.6 140.59 0ZM169.69-32.3L169.69-32.3 169.69-27.25Q167.49-28.45 165.71-28.93 163.94-29.4 161.19-29.4L161.19-29.4Q156.14-29.4 152.76-25.98 149.39-22.55 149.39-16.9L149.39-16.9Q149.39-11.15 152.74-7.75 156.09-4.35 161.59-4.35L161.59-4.35Q166.44-4.35 169.74-6.85L169.74-6.85 169.74-1.65Q166.64 0.4 161.14 0.4L161.14 0.4Q153.59 0.4 148.79-4.3 143.99-9 143.99-16.9L143.99-16.9Q143.99-24.55 148.81-29.35 153.64-34.15 161.04-34.15L161.04-34.15Q166.44-34.15 169.69-32.3ZM195.84-12.8L195.84-12.8 195.84-33.7 200.99-33.7 200.99-12.9Q200.99-6.35 197.59-2.95 194.19 0.45 188.19 0.45L188.19 0.45Q182.28 0.45 178.88-2.88 175.49-6.2 175.49-12.5L175.49-12.5 175.49-33.7 180.63-33.7 180.63-12.55Q180.63-8.25 182.71-6.28 184.78-4.3 188.19-4.3L188.19-4.3Q195.84-4.3 195.84-12.8ZM205.63-33.7L228.43-33.7 228.43-29.4 219.58-29.4 219.58 0 214.43 0 214.43-29.4 205.63-29.4 205.63-33.7ZM250.63-14.9L250.63-4.25 257.23-4.25Q263.58-4.25 263.58-9.5L263.58-9.5Q263.58-12.05 261.85-13.48 260.13-14.9 256.73-14.9L256.73-14.9 250.63-14.9ZM256.13-29.45L250.63-29.45 250.63-19.1 255.28-19.1Q259.03-19.1 260.85-20.63 262.68-22.15 262.68-24.6L262.68-24.6Q262.68-26.75 261.05-28.1 259.43-29.45 256.13-29.45L256.13-29.45ZM245.48 0L245.48-33.7 256.53-33.7Q261.83-33.7 264.88-31.23 267.93-28.75 267.93-24.7L267.93-24.7Q267.93-21.9 266.35-19.8 264.78-17.7 262.33-17.1L262.33-17.1Q265.08-16.6 266.95-14.55 268.83-12.5 268.83-9.05L268.83-9.05Q268.83-5.05 266.1-2.53 263.38 0 258.43 0L258.43 0 245.48 0ZM282.52-14.25L281.98-12.55 292.77-12.55 292.23-14.25Q290.32-20.15 289.13-24.03 287.93-27.9 287.68-28.85L287.68-28.85 287.43-29.8Q286.88-27.45 282.52-14.25L282.52-14.25ZM302.32 0L296.82 0 294.18-8.25 280.57-8.25 277.88 0 272.43 0 284.07-33.7 290.82-33.7 302.32 0ZM317.07-29.4L312.67-29.4 312.67-17.1 317.32-17.1Q320.52-17.1 322.17-18.78 323.82-20.45 323.82-23.25L323.82-23.25Q323.82-29.4 317.07-29.4L317.07-29.4ZM331.17 0L325.02 0 317.12-12.8 312.67-12.8 312.67 0 307.52 0 307.52-33.7 316.92-33.7Q322.72-33.7 325.87-30.88 329.02-28.05 329.02-23.2L329.02-23.2Q328.97-19.65 327.22-17.18 325.47-14.7 322.37-13.6L322.37-13.6 331.17 0ZM341.07-14.9L341.07-4.25 347.67-4.25Q354.02-4.25 354.02-9.5L354.02-9.5Q354.02-12.05 352.29-13.48 350.57-14.9 347.17-14.9L347.17-14.9 341.07-14.9ZM346.57-29.45L341.07-29.45 341.07-19.1 345.72-19.1Q349.47-19.1 351.29-20.63 353.12-22.15 353.12-24.6L353.12-24.6Q353.12-26.75 351.5-28.1 349.87-29.45 346.57-29.45L346.57-29.45ZM335.92 0L335.92-33.7 346.97-33.7Q352.27-33.7 355.32-31.23 358.37-28.75 358.37-24.7L358.37-24.7Q358.37-21.9 356.79-19.8 355.22-17.7 352.77-17.1L352.77-17.1Q355.52-16.6 357.39-14.55 359.27-12.5 359.27-9.05L359.27-9.05Q359.27-5.05 356.54-2.53 353.82 0 348.87 0L348.87 0 335.92 0ZM370.12-14.7L370.12-4.3 384.42-4.3 384.42 0 364.97 0 364.97-33.7 384.17-33.7 384.17-29.4 370.12-29.4 370.12-19 382.57-19 382.57-14.7 370.12-14.7ZM400.21-29.4L395.81-29.4 395.81-17.1 400.46-17.1Q403.66-17.1 405.31-18.78 406.96-20.45 406.96-23.25L406.96-23.25Q406.96-29.4 400.21-29.4L400.21-29.4ZM414.31 0L408.16 0 400.26-12.8 395.81-12.8 395.81 0 390.66 0 390.66-33.7 400.06-33.7Q405.87-33.7 409.01-30.88 412.16-28.05 412.16-23.2L412.16-23.2Q412.12-19.65 410.37-17.18 408.62-14.7 405.51-13.6L405.51-13.6 414.31 0ZM437.26-32.35L437.26-32.35 437.26-27.25Q433.91-29.35 429.66-29.35L429.66-29.35Q426.91-29.35 425.34-28.13 423.76-26.9 423.76-24.9 423.76-22.9 425.31-21.7 426.86-20.5 430.06-19.1L430.06-19.1Q432.16-18.2 433.34-17.55 434.51-16.9 436.04-15.73 437.56-14.55 438.29-12.93 439.01-11.3 439.01-9.2L439.01-9.2Q439.01-4.75 435.86-2.2 432.71 0.35 427.71 0.35L427.71 0.35Q422.16 0.35 418.51-1.8L418.51-1.8 418.51-7.15Q422.46-4.2 427.66-4.2L427.66-4.2Q430.41-4.2 432.01-5.48 433.61-6.75 433.61-9L433.61-9Q433.61-10.35 432.66-11.48 431.71-12.6 430.61-13.18 429.51-13.75 427.31-14.75L427.31-14.75Q426.01-15.35 425.49-15.6 424.96-15.85 423.76-16.5 422.56-17.15 421.99-17.6 421.41-18.05 420.56-18.85 419.71-19.65 419.34-20.45 418.96-21.25 418.64-22.33 418.31-23.4 418.31-24.65L418.31-24.65Q418.31-28.95 421.44-31.45 424.56-33.95 429.51-33.95L429.51-33.95Q434.06-33.95 437.26-32.35Z" opacity="1" transform="matrix(1,0,0,1,0,0)" fill="#919591" class="undefined-text-0" data-fill-palette-color="primary" id="text-0"></path></svg></g></svg></g></svg></g></svg></g><g transform="matrix(1,0,0,1,104.76985814936316,0)"><svg viewBox="0 0 47.74028370127367 56.216777037887496" height="56.216777037887496" width="47.74028370127367"><g><svg xmlns:x="http://ns.adobe.com/Extensibility/1.0/" xmlns:i="http://ns.adobe.com/AdobeIllustrator/10.0/" xmlns:graph="http://ns.adobe.com/Graphs/1.0/" xmlns="http://www.w3.org/2000/svg" xmlns:xlink="http://www.w3.org/1999/xlink" version="1.1" x="7.999999999999998" y="0" viewBox="23.265947341918945 2.6000022888183594 53.468109130859375 94.69999694824219" style="enable-background:new 0 0 100 100;" xml:space="preserve" height="56.216777037887496" width="31.740283701273672" class="icon-icon-0" data-fill-palette-color="accent" id="icon-0"><g i:extraneous="self" transform="matrix(1,0,0,1,0,0)" fill="#636365" data-fill-palette-color="accent"><g fill="#636365" data-fill-palette-color="accent"><path d="M37.3 51c0.8-0.8 2-1.3 3.3-1.3 1.1 0 2.2 0.4 3 1.1 0.8-1.4 2.3-2.3 4-2.3 1.7 0 3.2 0.9 4 2.3 0.8-0.7 1.9-1.1 3-1.1 1.6 0 3.1 0.9 4 2.1 0.8-0.7 1.9-1.1 3.1-1.1 0.7 0 1.3 0.1 1.9 0.4 7.8-4.5 13-12.9 13-22.5 0-14.4-11.7-26-26-26-14.4 0-26 11.7-26 26C24.5 38.1 29.6 46.4 37.3 51zM54.2 19.5l5.7-4.3c0.9-0.7 2.1-0.5 2.8 0.4 0.7 0.9 0.5 2.1-0.4 2.8L58.7 21l3.6 2.7c0.9 0.7 1 1.9 0.4 2.8-0.4 0.5-1 0.8-1.6 0.8-0.4 0-0.8-0.1-1.2-0.4l-5.7-4.3c-0.5-0.4-0.8-1-0.8-1.6C53.4 20.4 53.7 19.8 54.2 19.5zM50.5 31c6.5 0 8.6 3 10.4 7.7 0.5 1.4-0.5 2.9-2 2.9-2.2-0.1-5.3-0.2-8.4-0.2-3.1 0-6.2 0.1-8.4 0.2-1.5 0.1-2.6-1.5-2-2.9C42 34 44.1 31 50.5 31zM38.8 18.3c-0.9-0.7-1-1.9-0.4-2.8 0.7-0.9 1.9-1 2.8-0.4l5.7 4.3c0.5 0.4 0.8 1 0.8 1.6 0 0.6-0.3 1.2-0.8 1.6l-5.7 4.3c-0.4 0.3-0.8 0.4-1.2 0.4-0.6 0-1.2-0.3-1.6-0.8-0.7-0.9-0.5-2.1 0.4-2.8l3.6-2.7L38.8 18.3z" fill="#636365" data-fill-palette-color="accent"></path><path d="M45.2 53.2v5.7l2.2 0c0.6 0 1.3 0.2 1.8 0.4l0.6 0.3v-6.5c0-1.3-1.1-2.3-2.3-2.3C46.3 50.9 45.2 51.9 45.2 53.2z" fill="#636365" data-fill-palette-color="accent"></path><path d="M38.2 54.4v4.4h0.4c0.1 0 0.2 0 0.3 0 0.1 0 0.2 0 0.3 0l3.7 0.1v-4.5c0-1.3-1.1-2.3-2.3-2.3C39.3 52.1 38.2 53.1 38.2 54.4z" fill="#636365" data-fill-palette-color="accent"></path><path d="M52.3 54.4v7.5c0 1.3 1 2.3 2.3 2.3 1.3 0 2.3-1.1 2.3-2.3v-7.5c0-1.3-1.1-2.3-2.3-2.3S52.3 53.1 52.3 54.4z" fill="#636365" data-fill-palette-color="accent"></path><path d="M64.2 64.8l-0.5 0.2c-1.6 0.8-3.4 0.6-4.7-0.5l-0.3-0.3-0.3 0.3c-0.9 1.2-2.2 1.8-3.7 1.8-0.9 0-1.8-0.3-2.6-0.8l-0.4-0.3-0.2 0.4c-0.3 0.5-0.5 0.8-0.8 1.1-0.8 0.7-1.7 1.1-2.6 1.3l-0.9 0.1 0.6 0.6c2.7 2.8 3.4 6.4 3.1 8.6-0.1 0.6-0.6 1.1-1.2 1.1l-0.1 0c-0.6-0.1-1.1-0.7-1-1.3 0-0.1 0.6-6.1-5.5-8.9l-0.5-0.2-0.4 2.4c-0.1 0.6-0.7 1.1-1.3 1-0.6-0.1-1.1-0.7-1-1.3l0.6-3.6c0.1-0.6 0.6-1 1.2-1l5.7 0.2c0.7 0 1.3-0.2 1.7-0.6 0.5-0.4 0.7-1 0.7-1.7 0-1.2-1-2.3-2.3-2.3l-8.3-0.2c0 0 0 0 0 0-2.2 0-4.1 1.6-4.4 3.8l-0.9 6.9c-0.4 2.9 0.5 5.8 2.5 8l6.5 7.4c0.2 0.2 0.3 0.5 0.3 0.8v7.8c0 1 0.8 1.7 1.7 1.7h12.3c1 0 1.7-0.8 1.7-1.7v-8.1c0-0.4 0.2-0.8 0.5-1l1.5-0.9c2.7-1.7 4.3-4.5 4.3-7.6 0-4.8-0.3-9.1-0.9-12.7L64.2 64.8z" fill="#636365" data-fill-palette-color="accent"></path><path d="M61.6 53.1c-1.3 0-2.3 1-2.3 2.3v5.5c0 1.3 1.1 2.3 2.3 2.3 1.3 0 2.3-1.1 2.3-2.3v-5.5C64 54.1 62.9 53.1 61.6 53.1z" fill="#636365" data-fill-palette-color="accent"></path><path d="M30.6 51.2l-4.9-0.9c-1.1-0.2-2.1 0.5-2.3 1.6-0.2 1.1 0.5 2.1 1.6 2.3l5 0.9c1.1 0.2 2.1-0.5 2.3-1.6C32.4 52.4 31.7 51.4 30.6 51.2z" fill="#636365" data-fill-palette-color="accent"></path><path d="M29.9 58.6l-5 0.8c-1.1 0.2-1.8 1.2-1.6 2.3 0.2 1.1 1.2 1.8 2.3 1.6l5-0.8c0.8-0.1 1.5-0.8 1.6-1.6 0-0.2 0-0.5 0-0.7C32 59.2 31 58.5 29.9 58.6z" fill="#636365" data-fill-palette-color="accent"></path><path d="M70.1 55.1l4.9-0.9c1.1-0.2 1.8-1.2 1.6-2.3-0.2-1.1-1.2-1.8-2.3-1.6l-5 0.9c-1.1 0.2-1.8 1.2-1.6 2.3C68 54.6 69 55.3 70.1 55.1z" fill="#636365" data-fill-palette-color="accent"></path><path d="M75.1 59.5l-5-0.8c-1.1-0.2-2.1 0.5-2.3 1.6 0 0.2 0 0.5 0 0.7 0.1 0.8 0.8 1.4 1.6 1.6l5 0.8c1.1 0.2 2.1-0.5 2.3-1.6C76.9 60.7 76.2 59.7 75.1 59.5z" fill="#636365" data-fill-palette-color="accent"></path></g></g></svg></g></svg></g><g><rect width="55.233858149363165" height="1.8341848657708384" y="53.38259217211666" x="152.51014185063684" fill="#636365" data-fill-palette-color="secondary"></rect><rect width="55.233858149363165" height="1.8341848657708384" y="53.38259217211666" x="49.53599999999999" fill="#636365" data-fill-palette-color="secondary"></rect></g></svg></g></svg></g></svg></g></svg><rect width="512" height="320" fill="none" stroke="none" visibility="hidden"></rect></g></svg></g></svg>