<svg data-v-423bf9ae="" xmlns="http://www.w3.org/2000/svg" viewBox="0 0 479 90" class="iconLeft"><!----><!----><!----><g data-v-423bf9ae="" id="8f5a309c-9bbb-4771-a012-217f1bee0d14" fill="#0F104F" transform="matrix(5.970149706951518,0,0,5.970149706951518,108.25438438619699,-2.552240956889328)"><path d="M0.38 12.39C0.38 12.63 0.38 12.68 0.57 12.68C0.74 12.68 1.06 12.64 1.64 12.64C2.25 12.64 2.80 12.68 2.95 12.68C3.12 12.68 3.12 12.61 3.12 12.40C3.12 12.24 3.12 12.18 2.95 12.18L1.88 12.18C1.88 12.18 1.86 12.18 1.86 12.17C1.88 11.87 2.65 9.90 3.00 9.02C3.07 8.83 3.08 8.79 3.29 8.79L6.12 8.79C6.26 8.79 6.26 8.81 6.33 9.03C6.59 9.77 7.31 11.89 7.31 12.17C7.31 12.18 7.29 12.18 7.29 12.18L6.52 12.18C6.30 12.18 6.29 12.19 6.29 12.39C6.29 12.63 6.30 12.68 6.47 12.68C6.79 12.68 7.66 12.64 8.08 12.64C8.50 12.64 9.17 12.68 9.38 12.68C9.52 12.68 9.53 12.61 9.53 12.40C9.53 12.24 9.52 12.18 9.38 12.18L8.89 12.18C8.79 12.18 7.77 9.34 7.21 7.78L5.53 3.07C5.52 3.00 5.45 2.94 5.36 2.94C5.24 2.94 5.14 3.16 5.05 3.35C4.90 3.71 4.66 3.84 4.55 4.13L3.07 7.57C2.88 8.01 1.18 12.18 1.05 12.18L0.63 12.18C0.41 12.18 0.38 12.19 0.38 12.39ZM3.28 8.33C3.28 8.30 3.30 8.23 3.35 8.13L4.72 4.77C4.76 4.66 4.79 4.61 4.82 4.61C4.83 4.61 4.84 4.63 4.89 4.77L6.05 8.18C6.08 8.25 6.09 8.29 6.09 8.32C6.09 8.36 6.06 8.37 5.96 8.37L3.46 8.37C3.28 8.37 3.28 8.34 3.28 8.33ZM9.80 10.12C9.80 11.73 10.82 12.78 12.49 12.78C13.87 12.78 14.74 11.90 14.74 11.82C14.74 11.68 14.70 11.66 14.60 11.66C14.53 11.66 13.87 12.08 12.91 12.08C11.49 12.08 10.79 10.93 10.79 9.77C10.79 8.68 11.48 7.43 12.64 7.43C13.50 7.43 13.52 8.04 13.75 8.68C13.79 8.82 13.90 8.86 14.03 8.86C14.17 8.86 14.35 8.76 14.48 8.67C14.60 8.57 14.63 8.48 14.63 8.36C14.63 7.60 13.65 6.97 12.73 6.97C11.35 6.97 9.80 8.02 9.80 10.12ZM15.55 7.78C15.55 7.87 15.58 7.92 15.67 7.92L16.02 7.92C16.14 7.92 16.17 8.19 16.17 8.74C16.17 9.14 16.14 10.77 16.14 11.77C16.14 12.21 16.38 12.77 17.19 12.77C17.68 12.77 18.63 12.36 18.93 12.15C19.00 12.10 19.00 12.08 19.00 12.01C19.00 11.93 18.98 11.80 18.93 11.80C18.79 11.80 18.33 12.03 17.78 12.03C17.18 12.03 17.15 11.63 17.15 11.20L17.15 8.51C17.15 8.15 17.15 7.91 17.21 7.91L18.54 7.91C18.66 7.91 18.70 7.85 18.76 7.66C18.77 7.59 18.80 7.49 18.80 7.43C18.80 7.36 18.77 7.35 18.70 7.35L17.26 7.35C17.15 7.35 17.15 7.35 17.15 7.25C17.15 7.03 17.23 5.95 17.23 5.91C17.23 5.81 17.19 5.74 17.08 5.74C17.01 5.74 16.95 5.78 16.90 5.87L15.62 7.64C15.58 7.69 15.55 7.73 15.55 7.78ZM19.45 7.64C19.45 7.70 19.52 7.70 19.57 7.70C19.63 7.70 20.20 7.67 20.24 7.67C20.34 7.67 20.40 7.66 20.41 7.85C20.45 8.88 20.47 9.87 20.47 10.85C20.47 11.14 20.47 12.21 20.43 12.21L19.73 12.21C19.53 12.21 19.52 12.29 19.52 12.43C19.52 12.59 19.52 12.67 19.68 12.67C19.95 12.67 20.62 12.64 20.97 12.64C21.32 12.64 21.91 12.67 22.18 12.67C22.33 12.67 22.34 12.57 22.34 12.43C22.34 12.28 22.34 12.21 22.18 12.21L21.57 12.21C21.50 12.21 21.50 10.04 21.50 9.70L21.50 7.32C21.50 7.24 21.50 7.20 21.36 7.20C21.29 7.20 20.55 7.24 19.78 7.27C19.61 7.27 19.57 7.27 19.52 7.41C19.47 7.52 19.45 7.60 19.45 7.64ZM20.20 4.86C20.20 5.28 20.51 5.47 20.82 5.47C21.22 5.47 21.71 5.15 21.71 4.65C21.71 4.21 21.39 4.05 21.08 4.05C20.73 4.05 20.20 4.33 20.20 4.86ZM22.96 7.45C22.96 7.59 22.97 7.67 23.14 7.67L23.39 7.67C23.52 7.67 23.51 7.69 23.58 7.85C24.14 9.31 24.95 11.56 25.10 12.04C25.19 12.31 25.33 12.99 25.56 12.99C25.62 12.99 25.69 12.95 25.75 12.88C26.11 12.33 26.22 12.36 26.45 11.89C27.08 10.57 27.90 8.37 28.21 7.81C28.28 7.70 28.28 7.67 28.36 7.67L28.63 7.67C28.77 7.67 28.80 7.59 28.80 7.45C28.80 7.29 28.78 7.21 28.64 7.21C28.43 7.21 28.20 7.24 27.89 7.24C27.61 7.24 27.16 7.21 27.05 7.21C26.85 7.21 26.85 7.31 26.85 7.45C26.85 7.59 26.85 7.67 27.03 7.67L27.44 7.67C27.50 7.67 27.54 7.71 27.54 7.85C27.54 8.29 26.56 10.64 26.22 11.44C26.18 11.55 26.15 11.59 26.12 11.59C26.10 11.59 26.07 11.52 26.01 11.41C25.61 10.50 24.72 7.88 24.70 7.74C24.70 7.70 24.75 7.67 24.91 7.67L25.40 7.67C25.52 7.67 25.54 7.59 25.54 7.45C25.54 7.29 25.54 7.21 25.38 7.21C25.13 7.21 24.47 7.24 24.12 7.24C23.72 7.24 23.41 7.21 23.14 7.21C22.97 7.21 22.96 7.32 22.96 7.45ZM29.08 10.01C29.08 11.68 30.04 12.85 31.81 12.85C33.26 12.85 34.26 11.56 34.26 11.48C34.26 11.45 34.02 11.24 33.98 11.24C33.89 11.24 33.31 12.15 32.13 12.15C31.12 12.15 30.13 11.33 30.13 9.88C30.13 9.72 30.14 9.49 30.17 9.42C30.38 9.42 33.14 9.49 33.29 9.49C33.43 9.49 34.09 9.46 34.09 9.28C34.09 8.09 33.38 7.01 31.96 7.01C30.25 7.01 29.08 8.33 29.08 10.01ZM30.20 9.03C30.25 8.34 30.90 7.41 31.79 7.41C32.23 7.41 33.04 7.70 33.04 8.99C33.04 9.04 32.87 9.03 32.52 9.04C31.82 9.07 30.39 9.10 30.32 9.10C30.21 9.10 30.20 9.09 30.20 9.03ZM38.01 8.15C38.01 11.17 40.35 12.80 42.60 12.80C45.39 12.80 47.36 10.89 47.36 8.06C47.36 5.33 45.61 3.11 42.81 3.11C40.21 3.11 38.01 5.10 38.01 8.15ZM39.41 7.77C39.41 5.64 40.70 3.58 42.67 3.58C44.91 3.58 45.99 5.81 45.99 7.94C45.99 10.08 44.88 12.32 42.62 12.32C40.63 12.32 39.41 10.28 39.41 7.77ZM48.26 11.61C48.26 12.35 48.79 12.84 49.67 12.84C50.29 12.84 51.00 12.45 51.41 12.19C51.51 12.14 51.52 12.11 51.56 12.24C51.65 12.46 51.70 12.88 52.15 12.88C52.25 12.88 52.49 12.74 52.74 12.56C53.07 12.31 53.45 12.04 53.45 12.01C53.45 11.93 53.30 11.73 53.23 11.73C53.20 11.73 52.78 12.08 52.67 12.08C52.63 12.08 52.42 12.01 52.42 11.70C52.42 11.40 52.50 9.56 52.50 8.85C52.50 7.73 52.07 6.97 50.62 6.97C49.70 6.97 48.45 7.67 48.45 8.85C48.45 9.00 48.51 9.11 48.58 9.11C48.65 9.11 49.15 8.86 49.39 8.69C49.48 8.64 49.49 8.50 49.49 8.41C49.49 7.84 49.52 7.63 49.90 7.48C50.02 7.42 50.19 7.39 50.33 7.39C51.49 7.39 51.51 8.32 51.51 9.31C51.51 9.44 51.51 9.48 51.44 9.49C50.05 9.73 48.26 10.32 48.26 11.61ZM49.32 11.21C49.32 10.58 49.95 10.22 50.61 10.01C51.00 9.88 51.42 9.80 51.46 9.80C51.49 9.80 51.51 9.81 51.51 9.91L51.51 11.75C51.51 11.84 50.72 12.14 50.19 12.14C49.63 12.14 49.32 11.65 49.32 11.21ZM54.11 7.78C54.11 7.87 54.14 7.92 54.22 7.92L54.57 7.92C54.70 7.92 54.73 8.19 54.73 8.74C54.73 9.14 54.70 10.77 54.70 11.77C54.70 12.21 54.94 12.77 55.75 12.77C56.24 12.77 57.19 12.36 57.48 12.15C57.55 12.10 57.55 12.08 57.55 12.01C57.55 11.93 57.54 11.80 57.48 11.80C57.34 11.80 56.88 12.03 56.34 12.03C55.73 12.03 55.71 11.63 55.71 11.20L55.71 8.51C55.71 8.15 55.71 7.91 55.76 7.91L57.09 7.91C57.22 7.91 57.26 7.85 57.32 7.66C57.33 7.59 57.36 7.49 57.36 7.43C57.36 7.36 57.33 7.35 57.26 7.35L55.82 7.35C55.71 7.35 55.71 7.35 55.71 7.25C55.71 7.03 55.79 5.95 55.79 5.91C55.79 5.81 55.75 5.74 55.64 5.74C55.57 5.74 55.51 5.78 55.45 5.87L54.18 7.64C54.14 7.69 54.11 7.73 54.11 7.78ZM58.17 11.90C58.17 12.39 59.12 12.81 59.98 12.81C61.03 12.81 61.99 12.17 61.99 11.12C61.99 10.25 61.03 9.83 60.23 9.45C59.63 9.16 59.11 8.95 59.11 8.37C59.11 7.67 59.64 7.43 60.09 7.43C60.97 7.43 60.79 8.34 61.14 8.34C61.32 8.34 61.77 8.23 61.77 8.06C61.77 7.67 61.35 7.06 60.27 7.06C59.26 7.06 58.21 7.71 58.21 8.68C58.21 9.62 59.11 10.00 59.86 10.33C60.52 10.61 61.08 10.91 61.08 11.54C61.08 12.14 60.66 12.40 60.20 12.40C59.58 12.40 59.22 12.08 58.93 11.72C58.79 11.54 58.73 11.31 58.63 11.31C58.53 11.31 58.17 11.62 58.17 11.90Z"></path></g><defs data-v-423bf9ae=""><linearGradient data-v-423bf9ae="" gradientTransform="rotate(25)" id="d67e2fc0-b815-472f-91cc-d5b26982824a" x1="0%" y1="0%" x2="100%" y2="0%"><stop data-v-423bf9ae="" offset="0%" style="stop-color: rgb(13, 33, 117); stop-opacity: 1;"></stop><stop data-v-423bf9ae="" offset="100%" style="stop-color: rgb(31, 30, 251); stop-opacity: 1;"></stop></linearGradient></defs><g data-v-423bf9ae="" id="dc450fa8-27e9-4ae9-9189-e5c73b891748" transform="matrix(1.67404423818228,0,0,1.67404423818228,0.7401201766606391,-0.0053783741108404115)" stroke="none" fill="url(#d67e2fc0-b815-472f-91cc-d5b26982824a)"><path d="M35.46 18.37l.99-3.6a6.24 6.24 0 0 1 5.2-5.2l3.6-.99-.99 3.6a6.24 6.24 0 0 1-5.2 5.2l-3.6.99zm6.92-6.93l-.37.1a4.243 4.243 0 0 0-3.59 3.59l-.1.37.37-.1a4.243 4.243 0 0 0 3.59-3.59l.1-.37zM32.53 19.03l-1.84-3.25a6.243 6.243 0 0 1 0-7.36l1.84-3.25 1.84 3.25c1.6 2.21 1.6 5.15 0 7.36l-1.84 3.25zm0-9.79l-.2.33a4.26 4.26 0 0 0 0 5.08l.2.33.2-.33a4.26 4.26 0 0 0 0-5.08l-.2-.33zM41.67 24.28c-1.33 0-2.6-.41-3.68-1.19l-3.25-1.84 3.25-1.84c2.15-1.56 5.2-1.56 7.36 0l3.25 1.84-3.25 1.84a6.241 6.241 0 0 1-3.68 1.19zm-2.87-3.03l.33.2c1.48 1.1 3.6 1.1 5.08 0l.33-.2-.33-.2c-1.48-1.1-3.6-1.1-5.08 0l-.33.2zM26.17 25.39l-1.84-3.25a6.243 6.243 0 0 1 0-7.36l1.84-3.25 1.84 3.25c1.6 2.21 1.6 5.15 0 7.36l-1.84 3.25zm0-9.79l-.2.33a4.26 4.26 0 0 0 0 5.08l.2.33.2-.33a4.26 4.26 0 0 0 0-5.08l-.2-.33zM35.31 30.64c-1.33 0-2.6-.41-3.68-1.19l-3.25-1.84 3.25-1.84c2.15-1.56 5.2-1.56 7.36 0l3.25 1.84-3.25 1.84a6.241 6.241 0 0 1-3.68 1.19zm-2.88-3.03l.33.2c1.48 1.1 3.6 1.1 5.08 0l.33-.2-.33-.2c-1.48-1.1-3.6-1.1-5.08 0l-.33.2zM19.8 31.76l-1.84-3.25a6.243 6.243 0 0 1 0-7.36l1.84-3.25 1.84 3.25c1.6 2.21 1.6 5.15 0 7.36l-1.84 3.25zm0-9.8l-.2.33a4.23 4.23 0 0 0 0 5.08l.2.33.2-.33a4.26 4.26 0 0 0 0-5.08l-.2-.33zM28.94 37.01c-1.33 0-2.6-.41-3.68-1.19l-3.25-1.84 3.25-1.84c2.15-1.56 5.2-1.56 7.36 0l3.25 1.84-3.25 1.84a6.241 6.241 0 0 1-3.68 1.19zm-2.87-3.04l.33.2c1.48 1.09 3.6 1.1 5.08 0l.33-.2-.33-.2c-1.48-1.1-3.6-1.09-5.08 0l-.33.2zM13.44 38.12l-1.84-3.25a6.243 6.243 0 0 1 0-7.36l1.84-3.25 1.84 3.25c1.6 2.21 1.6 5.15 0 7.36l-1.84 3.25zm0-9.79l-.2.33a4.26 4.26 0 0 0 0 5.08l.2.33.2-.33a4.26 4.26 0 0 0 0-5.08l-.2-.33zM22.58 43.37c-1.33 0-2.6-.41-3.68-1.19l-3.25-1.84 3.25-1.84c2.15-1.56 5.2-1.56 7.36 0l3.25 1.84-3.25 1.84a6.241 6.241 0 0 1-3.68 1.19zm-2.87-3.03l.33.2c1.48 1.1 3.6 1.1 5.08 0l.33-.2-.33-.2c-1.48-1.1-3.6-1.1-5.08 0l-.33.2zM7.07 44.49l-1.84-3.25a6.243 6.243 0 0 1 0-7.36l1.84-3.25 1.84 3.25c1.6 2.21 1.6 5.15 0 7.36l-1.84 3.25zm0-9.8l-.2.33a4.26 4.26 0 0 0 0 5.08l.2.33.2-.33a4.26 4.26 0 0 0 0-5.08l-.2-.33zM16.21 49.74c-1.33 0-2.6-.41-3.68-1.19L9.29 46.7l3.25-1.84c2.15-1.56 5.2-1.56 7.36 0l3.25 1.84-3.25 1.84c-1.09.78-2.36 1.2-3.69 1.2zm-2.87-3.04l.33.2c1.48 1.1 3.6 1.1 5.08 0l.33-.2-.33-.2c-1.48-1.1-3.6-1.09-5.08 0l-.33.2z"></path><path d="M1 53.77c-.26 0-.51-.1-.71-.29a.996.996 0 0 1 0-1.41l35.72-35.72a.996.996 0 1 1 1.41 1.41L1.71 53.48c-.2.2-.45.29-.71.29zM36.11 7.66c-.26 0-.51-.1-.71-.29a.996.996 0 0 1 0-1.41L41.06.3a.996.996 0 1 1 1.41 1.41l-5.66 5.66c-.19.19-.44.29-.7.29zM40.35 9.07c-.26 0-.51-.1-.71-.29a.996.996 0 0 1 0-1.41L46.71.3a.996.996 0 1 1 1.41 1.41l-7.07 7.07c-.19.19-.44.29-.7.29zM46.01 14.73c-.26 0-.51-.1-.71-.29a.996.996 0 0 1 0-1.41l7.07-7.07a.996.996 0 1 1 1.41 1.41l-7.07 7.07c-.19.19-.44.29-.7.29zM46.72 8.36c-.26 0-.51-.1-.71-.29a.996.996 0 0 1 0-1.41L52.37.3a.996.996 0 1 1 1.41 1.41l-6.36 6.36a.96.96 0 0 1-.7.29zM47.42 18.97c-.26 0-.51-.1-.71-.29a.996.996 0 0 1 0-1.41l5.66-5.66a.996.996 0 1 1 1.41 1.41l-5.66 5.66c-.18.19-.44.29-.7.29z"></path></g><!----></svg>